<svg xmlns="http://www.w3.org/2000/svg" xmlns:xlink="http://www.w3.org/1999/xlink" viewBox="4764.858 938.543 1367.712 1132.031">
  <defs>
    <style>
      .cls-1 {
        fill: #fafafa;
      }

      .cls-2, .cls-6 {
        fill: none;
      }

      .cls-2, .cls-4 {
        stroke: #89ced2;
      }

      .cls-2 {
        stroke-width: 4px;
      }

      .cls-3 {
        fill: url(#linear-gradient);
      }

      .cls-4 {
        fill: #fcf9f9;
        stroke-width: 2px;
      }

      .cls-5 {
        stroke: none;
      }
    </style>
    <linearGradient id="linear-gradient" x1="0.5" x2="0.5" y2="1" gradientUnits="objectBoundingBox">
      <stop offset="0" stop-color="#fcf9f9" stop-opacity="0"/>
      <stop offset="0.394" stop-color="#fff" stop-opacity="0"/>
      <stop offset="1" stop-color="#89ced2"/>
    </linearGradient>
  </defs>
  <g id="Group_1125" data-name="Group 1125" transform="translate(4774.633 436)">
    <path id="Path_3588" data-name="Path 3588" class="cls-1" d="M3281,1697.3l85.336-58.551,113.5,58.551,78.547-78.331,102.215,5.759,154.417-57.054,195.973,43.379,77.868-24.651,30.693,15.292,35.878,27.95,73.881,31.2,156.007-87.244,114.128,12.8,75.479-72.5L4647,1498l.043,1129.573H3281Z" transform="translate(-3289.633 -993)"/>
    <path id="Path_3597" data-name="Path 3597" class="cls-2" d="M1879,1097.506l85.781-59.622,112.209,59.622,79.963-79.938,101.967,6.149,154.486-56.385,194.367,43.342,78.658-24.889,33.178,15.648,33.709,27.968,73.752,30.522,157.369-87.117,112.42,12.978,75.852-72.358,72.43-15.932" transform="translate(-1887.633 -393)"/>
    <g id="Group_67" data-name="Group 67" transform="translate(71.279 514.007)">
      <g id="Symbol_6_26" data-name="Symbol 6 – 26" transform="translate(-72 -485.909)">
        <path id="Path_3600" data-name="Path 3600" class="cls-3" d="M0,0H5V223.623H0Z" transform="translate(80 836.646) rotate(180)"/>
        <g id="Ellipse_1" data-name="Ellipse 1" class="cls-4" transform="translate(72 610)">
          <circle class="cls-5" cx="5.5" cy="5.5" r="5.5"/>
          <circle class="cls-6" cx="5.5" cy="5.5" r="4.5"/>
        </g>
      </g>
      <path id="Path_3598" data-name="Path 3598" class="cls-3" d="M0,0H5V68.113H0Z" transform="translate(121.972 253.272) rotate(180)"/>
      <g id="Ellipse_1-2" data-name="Ellipse 1" class="cls-4" transform="translate(113.972 182.134)">
        <ellipse class="cls-5" cx="5.5" cy="5.504" rx="5.5" ry="5.504"/>
        <ellipse class="cls-6" cx="5.5" cy="5.504" rx="4.5" ry="4.504"/>
      </g>
      <g id="Symbol_6_27" data-name="Symbol 6 – 27" transform="translate(120.266 -504.923)">
        <path id="Path_3600-2" data-name="Path 3600" class="cls-3" d="M0,0H5V223.623H0Z" transform="translate(80 836.646) rotate(180)"/>
        <g id="Ellipse_1-3" data-name="Ellipse 1" class="cls-4" transform="translate(72 610)">
          <circle class="cls-5" cx="5.5" cy="5.5" r="5.5"/>
          <circle class="cls-6" cx="5.5" cy="5.5" r="4.5"/>
        </g>
      </g>
      <g id="Symbol_6_28" data-name="Symbol 6 – 28" transform="translate(222.345 -499.919)">
        <path id="Path_3600-3" data-name="Path 3600" class="cls-3" d="M0,0H5V223.623H0Z" transform="translate(80 836.646) rotate(180)"/>
        <g id="Ellipse_1-4" data-name="Ellipse 1" class="cls-4" transform="translate(72 610)">
          <circle class="cls-5" cx="5.5" cy="5.5" r="5.5"/>
          <circle class="cls-6" cx="5.5" cy="5.5" r="4.5"/>
        </g>
      </g>
      <g id="Symbol_6_29" data-name="Symbol 6 – 29" transform="translate(375.96 -555.96)">
        <path id="Path_3600-4" data-name="Path 3600" class="cls-3" d="M0,0H5V223.623H0Z" transform="translate(80 836.646) rotate(180)"/>
        <g id="Ellipse_1-5" data-name="Ellipse 1" class="cls-4" transform="translate(72 610)">
          <circle class="cls-5" cx="5.5" cy="5.5" r="5.5"/>
          <circle class="cls-6" cx="5.5" cy="5.5" r="4.5"/>
        </g>
      </g>
      <g id="Symbol_6_30" data-name="Symbol 6 – 30" transform="translate(571.198 -513.93)">
        <path id="Path_3600-5" data-name="Path 3600" class="cls-3" d="M0,0H5V223.623H0Z" transform="translate(80 836.646) rotate(180)"/>
        <g id="Ellipse_1-6" data-name="Ellipse 1" class="cls-4" transform="translate(72 610)">
          <circle class="cls-5" cx="5.5" cy="5.5" r="5.5"/>
          <circle class="cls-6" cx="5.5" cy="5.5" r="4.5"/>
        </g>
      </g>
      <g id="Symbol_6_31" data-name="Symbol 6 – 31" transform="translate(649.492 -537.947)">
        <path id="Path_3600-6" data-name="Path 3600" class="cls-3" d="M0,0H5V223.623H0Z" transform="translate(80 836.646) rotate(180)"/>
        <g id="Ellipse_1-7" data-name="Ellipse 1" class="cls-4" transform="translate(72 610)">
          <circle class="cls-5" cx="5.5" cy="5.5" r="5.5"/>
          <circle class="cls-6" cx="5.5" cy="5.5" r="4.5"/>
        </g>
      </g>
      <g id="Symbol_6_32" data-name="Symbol 6 – 32" transform="translate(683.188 -521.935)">
        <path id="Path_3600-7" data-name="Path 3600" class="cls-3" d="M0,0H5V223.623H0Z" transform="translate(80 836.646) rotate(180)"/>
        <g id="Ellipse_1-8" data-name="Ellipse 1" class="cls-4" transform="translate(72 610)">
          <circle class="cls-5" cx="5.5" cy="5.5" r="5.5"/>
          <circle class="cls-6" cx="5.5" cy="5.5" r="4.5"/>
        </g>
      </g>
      <g id="Symbol_6_33" data-name="Symbol 6 – 33" transform="translate(716.884 -494.916)">
        <path id="Path_3600-8" data-name="Path 3600" class="cls-3" d="M0,0H5V223.623H0Z" transform="translate(80 836.646) rotate(180)"/>
        <g id="Ellipse_1-9" data-name="Ellipse 1" class="cls-4" transform="translate(72 610)">
          <circle class="cls-5" cx="5.5" cy="5.5" r="5.5"/>
          <circle class="cls-6" cx="5.5" cy="5.5" r="4.5"/>
        </g>
      </g>
      <g id="Symbol_6_34" data-name="Symbol 6 – 34" transform="translate(791.214 -463.893)">
        <path id="Path_3600-9" data-name="Path 3600" class="cls-3" d="M0,0H5V223.623H0Z" transform="translate(80 836.646) rotate(180)"/>
        <g id="Ellipse_1-10" data-name="Ellipse 1" class="cls-4" transform="translate(72 610)">
          <circle class="cls-5" cx="5.5" cy="5.5" r="5.5"/>
          <circle class="cls-6" cx="5.5" cy="5.5" r="4.5"/>
        </g>
      </g>
      <g id="Symbol_6_35" data-name="Symbol 6 – 35" transform="translate(946.811 -550.957)">
        <path id="Path_3600-10" data-name="Path 3600" class="cls-3" d="M0,0H5V223.623H0Z" transform="translate(80 836.646) rotate(180)"/>
        <g id="Ellipse_1-11" data-name="Ellipse 1" class="cls-4" transform="translate(72 610)">
          <circle class="cls-5" cx="5.5" cy="5.5" r="5.5"/>
          <circle class="cls-6" cx="5.5" cy="5.5" r="4.5"/>
        </g>
      </g>
      <g id="Symbol_6_36" data-name="Symbol 6 – 36" transform="translate(1060.783 -537.947)">
        <path id="Path_3600-11" data-name="Path 3600" class="cls-3" d="M0,0H5V223.623H0Z" transform="translate(80 836.646) rotate(180)"/>
        <g id="Ellipse_1-12" data-name="Ellipse 1" class="cls-4" transform="translate(72 610)">
          <circle class="cls-5" cx="5.5" cy="5.5" r="5.5"/>
          <circle class="cls-6" cx="5.5" cy="5.5" r="4.5"/>
        </g>
      </g>
      <g id="Symbol_6_37" data-name="Symbol 6 – 37" transform="translate(1135.112 -610)">
        <path id="Path_3600-12" data-name="Path 3600" class="cls-3" d="M0,0H5V223.623H0Z" transform="translate(80 836.646) rotate(180)"/>
        <g id="Ellipse_1-13" data-name="Ellipse 1" class="cls-4" transform="translate(72 610)">
          <circle class="cls-5" cx="5.5" cy="5.5" r="5.5"/>
          <circle class="cls-6" cx="5.5" cy="5.5" r="4.5"/>
        </g>
      </g>
    </g>
  </g>
</svg>
