<svg xmlns="http://www.w3.org/2000/svg" xmlns:xlink="http://www.w3.org/1999/xlink" viewBox="0 0 1367.71 315.17"><defs><style>.cls-1,.cls-4,.cls-7{fill:none;}.cls-2{clip-path:url(#clip-path);}.cls-3{fill:#fafafa;}.cls-4,.cls-7{stroke:#89ced2;}.cls-4{stroke-width:4px;}.cls-5{fill:url(#Degradado_sin_nombre_13);}.cls-6{fill:#fcf9f9;}.cls-7{stroke-width:2px;}.cls-8{fill:url(#Degradado_sin_nombre_13-2);}.cls-9{fill:url(#Degradado_sin_nombre_13-3);}.cls-10{fill:url(#Degradado_sin_nombre_13-4);}.cls-11{fill:url(#Degradado_sin_nombre_13-5);}.cls-12{fill:url(#Degradado_sin_nombre_13-6);}.cls-13{fill:url(#Degradado_sin_nombre_13-7);}.cls-14{fill:url(#Degradado_sin_nombre_13-8);}.cls-15{fill:url(#Degradado_sin_nombre_13-9);}.cls-16{fill:url(#Degradado_sin_nombre_13-10);}.cls-17{fill:url(#Degradado_sin_nombre_13-11);}.cls-18{fill:url(#Degradado_sin_nombre_13-12);}.cls-19{fill:url(#Degradado_sin_nombre_13-13);}</style><clipPath id="clip-path"><rect class="cls-1" x="1.14" width="1366.04" height="264.74"/></clipPath><linearGradient id="Degradado_sin_nombre_13" x1="1620.67" y1="628.95" x2="1620.67" y2="628.33" gradientTransform="matrix(-5, 0, 0, 223.62, 8189.91, -140369.62)" gradientUnits="userSpaceOnUse"><stop offset="0" stop-color="#fcf9f9" stop-opacity="0"/><stop offset="0.39" stop-color="#fff" stop-opacity="0"/><stop offset="1" stop-color="#89ced2"/></linearGradient><linearGradient id="Degradado_sin_nombre_13-2" x1="1620.67" y1="614.7" x2="1620.67" y2="613.7" gradientTransform="matrix(-5, 0, 0, 68.11, 8303.88, -41604.35)" xlink:href="#Degradado_sin_nombre_13"/><linearGradient id="Degradado_sin_nombre_13-3" x1="1620.67" y1="629.2" x2="1620.67" y2="628.33" gradientTransform="matrix(-5, 0, 0, 223.62, 8382.18, -140388.63)" xlink:href="#Degradado_sin_nombre_13"/><linearGradient id="Degradado_sin_nombre_13-4" x1="1620.67" y1="628.95" x2="1620.67" y2="628.33" gradientTransform="matrix(-5, 0, 0, 223.62, 8484.25, -140383.63)" xlink:href="#Degradado_sin_nombre_13"/><linearGradient id="Degradado_sin_nombre_13-5" x1="1620.67" y1="629.2" x2="1620.67" y2="628.33" gradientTransform="matrix(-5, 0, 0, 223.62, 8637.87, -140439.67)" xlink:href="#Degradado_sin_nombre_13"/><linearGradient id="Degradado_sin_nombre_13-6" x1="1620.67" y1="629.2" x2="1620.67" y2="628.33" gradientTransform="matrix(-5, 0, 0, 223.62, 8833.11, -140397.64)" xlink:href="#Degradado_sin_nombre_13"/><linearGradient id="Degradado_sin_nombre_13-7" x1="1620.67" y1="629.2" x2="1620.67" y2="628.33" gradientTransform="matrix(-5, 0, 0, 223.62, 8911.4, -140421.66)" xlink:href="#Degradado_sin_nombre_13"/><linearGradient id="Degradado_sin_nombre_13-8" x1="1620.67" y1="629.2" x2="1620.67" y2="628.33" gradientTransform="matrix(-5, 0, 0, 223.62, 8945.1, -140405.64)" xlink:href="#Degradado_sin_nombre_13"/><linearGradient id="Degradado_sin_nombre_13-9" x1="1620.67" y1="628.93" x2="1620.67" y2="628.33" gradientTransform="matrix(-5, 0, 0, 223.62, 8978.79, -140378.62)" xlink:href="#Degradado_sin_nombre_13"/><linearGradient id="Degradado_sin_nombre_13-10" x1="1620.67" y1="628.95" x2="1620.67" y2="628.33" gradientTransform="matrix(-5, 0, 0, 223.62, 9053.12, -140347.6)" xlink:href="#Degradado_sin_nombre_13"/><linearGradient id="Degradado_sin_nombre_13-11" x1="1620.67" y1="629.2" x2="1620.67" y2="628.33" gradientTransform="matrix(-5, 0, 0, 223.62, 9208.72, -140434.67)" xlink:href="#Degradado_sin_nombre_13"/><linearGradient id="Degradado_sin_nombre_13-12" x1="1620.67" y1="629.2" x2="1620.67" y2="628.33" gradientTransform="matrix(-5, 0, 0, 223.62, 9322.69, -140421.66)" xlink:href="#Degradado_sin_nombre_13"/><linearGradient id="Degradado_sin_nombre_13-13" x1="1620.67" y1="629.33" x2="1620.67" y2="628.33" gradientTransform="matrix(-5, 0, 0, 223.62, 9397.02, -140493.71)" xlink:href="#Degradado_sin_nombre_13"/></defs><title>Recurso 1 </title><g id="Capa_2" data-name="Capa 2"><g id="Capa_1-2" data-name="Capa 1"><g class="cls-2"><g id="Group_1125" data-name="Group 1125"><path id="Path_3588" data-name="Path 3588" class="cls-3" d="M1.14,201.76l85.34-58.55L200,201.76l78.55-78.33,102.22,5.76L535.16,72.13l196,43.38L809,90.86l30.69,15.29,35.88,27.95,73.88,31.2,156-87.24,114.13,12.8,75.48-72.5,72.08-15.9,0,262.28H1.14Z"/><path id="Path_3597" data-name="Path 3597" class="cls-4" d="M1.14,202l85.78-59.62L199.13,202l80-79.94,102,6.15L535.55,71.79l194.37,43.34,78.66-24.89,33.18,15.65,33.71,28,73.75,30.52,157.37-87.12,112.42,13,75.85-72.36L1367.28,2"/><g id="Group_67" data-name="Group 67"><g id="Symbol_6_26" data-name="Symbol 6 26"><path id="Path_3600" data-name="Path 3600" class="cls-5" d="M89.05,278.14h-5V138.58h5Z"/><g id="Ellipse_1" data-name="Ellipse 1"><circle class="cls-6" cx="86.55" cy="141.06" r="5.5"/><circle class="cls-7" cx="86.55" cy="141.06" r="4.5"/></g></g><path id="Path_3598" data-name="Path 3598" class="cls-8" d="M203,264.74h-5V196.63h5Z"/><g id="Ellipse_1-2" data-name="Ellipse 1-2"><ellipse class="cls-6" cx="200.53" cy="199.1" rx="5.5" ry="5.5"/><ellipse class="cls-7" cx="200.53" cy="199.1" rx="4.5" ry="4.5"/></g><g id="Symbol_6_27" data-name="Symbol 6 27"><path id="Path_3600-2" data-name="Path 3600-2" class="cls-9" d="M281.32,315.17h-5V119.57h5Z"/><g id="Ellipse_1-3" data-name="Ellipse 1-3"><circle class="cls-6" cx="278.82" cy="122.04" r="5.5"/><circle class="cls-7" cx="278.82" cy="122.04" r="4.5"/></g></g><g id="Symbol_6_28" data-name="Symbol 6 28"><path id="Path_3600-3" data-name="Path 3600-3" class="cls-10" d="M383.4,264.13h-5V124.57h5Z"/><g id="Ellipse_1-4" data-name="Ellipse 1-4"><circle class="cls-6" cx="380.9" cy="127.05" r="5.5"/><circle class="cls-7" cx="380.9" cy="127.05" r="4.5"/></g></g><g id="Symbol_6_29" data-name="Symbol 6 29"><path id="Path_3600-4" data-name="Path 3600-4" class="cls-11" d="M537,264.13h-5V68.53h5Z"/><g id="Ellipse_1-5" data-name="Ellipse 1-5"><circle class="cls-6" cx="534.51" cy="71.01" r="5.5"/><circle class="cls-7" cx="534.51" cy="71.01" r="4.5"/></g></g><g id="Symbol_6_30" data-name="Symbol 6 30"><path id="Path_3600-5" data-name="Path 3600-5" class="cls-12" d="M732.25,306.16h-5V110.56h5Z"/><g id="Ellipse_1-6" data-name="Ellipse 1-6"><circle class="cls-6" cx="729.75" cy="113.04" r="5.5"/><circle class="cls-7" cx="729.75" cy="113.04" r="4.5"/></g></g><g id="Symbol_6_31" data-name="Symbol 6 31"><path id="Path_3600-6" data-name="Path 3600-6" class="cls-13" d="M810.55,282.14h-5V86.54h5Z"/><g id="Ellipse_1-7" data-name="Ellipse 1-7"><circle class="cls-6" cx="808.05" cy="89.02" r="5.5"/><circle class="cls-7" cx="808.05" cy="89.02" r="4.5"/></g></g><g id="Symbol_6_32" data-name="Symbol 6 32"><path id="Path_3600-7" data-name="Path 3600-7" class="cls-14" d="M844.24,298.16h-5V102.55h5Z"/><g id="Ellipse_1-8" data-name="Ellipse 1-8"><circle class="cls-6" cx="841.74" cy="105.03" r="5.5"/><circle class="cls-7" cx="841.74" cy="105.03" r="4.5"/></g></g><g id="Symbol_6_33" data-name="Symbol 6 33"><path id="Path_3600-8" data-name="Path 3600-8" class="cls-15" d="M877.94,264.74h-5V129.57h5Z"/><g id="Ellipse_1-9" data-name="Ellipse 1-9"><circle class="cls-6" cx="875.44" cy="132.05" r="5.5"/><circle class="cls-7" cx="875.44" cy="132.05" r="4.5"/></g></g><g id="Symbol_6_34" data-name="Symbol 6 34"><path id="Path_3600-9" data-name="Path 3600-9" class="cls-16" d="M952.27,300.16h-5V160.6h5Z"/><g id="Ellipse_1-10" data-name="Ellipse 1-10"><circle class="cls-6" cx="949.77" cy="163.07" r="5.5"/><circle class="cls-7" cx="949.77" cy="163.07" r="4.5"/></g></g><g id="Symbol_6_35" data-name="Symbol 6 35"><path id="Path_3600-10" data-name="Path 3600-10" class="cls-17" d="M1107.86,269.13h-5V73.53h5Z"/><g id="Ellipse_1-11" data-name="Ellipse 1-11"><circle class="cls-6" cx="1105.36" cy="76.01" r="5.5"/><circle class="cls-7" cx="1105.36" cy="76.01" r="4.5"/></g></g><g id="Symbol_6_36" data-name="Symbol 6 36"><path id="Path_3600-11" data-name="Path 3600-11" class="cls-18" d="M1221.84,282.14h-5V86.54h5Z"/><g id="Ellipse_1-12" data-name="Ellipse 1-12"><circle class="cls-6" cx="1219.34" cy="89.02" r="5.5"/><circle class="cls-7" cx="1219.34" cy="89.02" r="4.5"/></g></g><g id="Symbol_6_37" data-name="Symbol 6 37"><path id="Path_3600-12" data-name="Path 3600-12" class="cls-19" d="M1296.17,238.11h-5V14.49h5Z"/><g id="Ellipse_1-13" data-name="Ellipse 1-13"><circle class="cls-6" cx="1293.67" cy="16.97" r="5.5"/><circle class="cls-7" cx="1293.67" cy="16.97" r="4.5"/></g></g></g></g></g></g></g></svg>