<svg xmlns="http://www.w3.org/2000/svg" viewBox="4762.988 1764.653 1371.88 312.517">
  <defs>
    <style>
      .cls-1, .cls-13, .cls-2, .cls-3, .cls-7 {
        fill: none;
      }

      .cls-1, .cls-2 {
        stroke: #97e3e7;
      }

      .cls-1, .cls-2, .cls-3, .cls-5, .cls-9 {
        stroke-width: 2px;
      }

      .cls-1, .cls-3, .cls-4, .cls-5, .cls-6 {
        opacity: 0.8;
      }

      .cls-2 {
        opacity: 0.796;
      }

      .cls-10, .cls-3, .cls-4, .cls-5, .cls-6, .cls-8, .cls-9 {
        stroke: #95e0e4;
      }

      .cls-10, .cls-11, .cls-4, .cls-5, .cls-6, .cls-8, .cls-9 {
        fill: #fafafa;
      }

      .cls-4, .cls-7, .cls-8 {
        stroke-width: 3px;
      }

      .cls-7 {
        stroke: #95e1e5;
      }

      .cls-10 {
        stroke-width: 4px;
      }

      .cls-12 {
        stroke: none;
      }
    </style>
  </defs>
  <g id="Group_1114" data-name="Group 1114" transform="translate(6190.167 4155.17) rotate(180)">
    <g id="Group_71" data-name="Group 71" transform="translate(-9.007 2078)">
      <g id="Group_17" data-name="Group 17" transform="translate(0 8.409)">
        <path id="Path_38" data-name="Path 38" class="cls-1" d="M3379.939,2803.022l-28.439,53.859,137.214-28.006-22.581,112.679,118.7-13.757-23.07-114.166,87.45,17.938,3.712,136.228,109.812-15.559-42.177-93.547,99.8,69.106,78.33-53.873L4045.8,2912.5l-6.561-124.488,171.365,194.456,155.507-17.726-188.056-94.9,168.567-31.112,106.732,102.129,119.033-83.979-12.4,135.013,87.866-25.435-31.209-53.959,79.06-29.835" transform="translate(-3260.504 -2786.645)"/>
        <path id="Path_39" data-name="Path 39" class="cls-2" d="M3480.707,2828.212l95.448,98.77,65.594-94.464,111.881,119.313-108.848,16.476,65.111-111.981,180.486,17.039-11.461,91.084,151.335-177.7,138.777,83.7L4037.5,2911.984l317.741,52.464L4339,2838.845l226.043,17.059,43.605,57.421-55.975,78.861" transform="translate(-3252.218 -2786.752)"/>
        <path id="Path_40" data-name="Path 40" class="cls-3" d="M3553.169,2811.334l-72.46,15.48" transform="translate(-3252.218 -2784.669)"/>
        <path id="Path_41" data-name="Path 41" class="cls-3" d="M3497.1,2829.392l-111.667-26.962H3331.2" transform="translate(-3265.988 -2785.56)"/>
      </g>
      <g id="Group_18" data-name="Group 18" transform="translate(114.939)">
        <g id="Ellipse_21" data-name="Ellipse 21" class="cls-4" transform="translate(654.442)">
          <ellipse class="cls-12" cx="7.981" cy="8.136" rx="7.981" ry="8.136"/>
          <ellipse class="cls-13" cx="7.981" cy="8.136" rx="6.481" ry="6.636"/>
        </g>
        <g id="Ellipse_25" data-name="Ellipse 25" class="cls-4" transform="translate(793.843 83.526)">
          <ellipse class="cls-12" cx="7.981" cy="8.136" rx="7.981" ry="8.136"/>
          <ellipse class="cls-13" cx="7.981" cy="8.136" rx="6.481" ry="6.636"/>
        </g>
        <g id="Ellipse_28" data-name="Ellipse 28" class="cls-4" transform="translate(1233.33 125.831)">
          <ellipse class="cls-12" cx="7.981" cy="8.136" rx="7.981" ry="8.136"/>
          <ellipse class="cls-13" cx="7.981" cy="8.136" rx="6.481" ry="6.636"/>
        </g>
        <g id="Ellipse_26" data-name="Ellipse 26" class="cls-4" transform="translate(1188.637 69.424)">
          <ellipse class="cls-12" cx="7.981" cy="8.136" rx="7.981" ry="8.136"/>
          <ellipse class="cls-13" cx="7.981" cy="8.136" rx="6.481" ry="6.636"/>
        </g>
        <g id="Ellipse_20" data-name="Ellipse 20" class="cls-4" transform="translate(336.266 70.509)">
          <ellipse class="cls-12" cx="7.981" cy="8.136" rx="7.981" ry="8.136"/>
          <ellipse class="cls-13" cx="7.981" cy="8.136" rx="6.481" ry="6.636"/>
        </g>
        <g id="Ellipse_27" data-name="Ellipse 27" class="cls-5" transform="translate(965.169 54.238)">
          <ellipse class="cls-12" cx="5.853" cy="5.966" rx="5.853" ry="5.966"/>
          <ellipse class="cls-13" cx="5.853" cy="5.966" rx="4.853" ry="4.966"/>
        </g>
        <g id="Ellipse_15" data-name="Ellipse 15" class="cls-6" transform="translate(321.368 103.051)">
          <ellipse class="cls-12" cx="3.724" cy="3.797" rx="3.724" ry="3.797"/>
          <ellipse class="cls-13" cx="3.724" cy="3.797" rx="3.224" ry="3.297"/>
        </g>
        <g id="Ellipse_23" data-name="Ellipse 23" class="cls-6" transform="translate(571.44 107.39)">
          <ellipse class="cls-12" cx="3.724" cy="3.797" rx="3.724" ry="3.797"/>
          <ellipse class="cls-13" cx="3.724" cy="3.797" rx="3.224" ry="3.297"/>
        </g>
        <g id="Ellipse_24" data-name="Ellipse 24" class="cls-6" transform="translate(747.021 104.136)">
          <ellipse class="cls-12" cx="3.724" cy="3.797" rx="3.724" ry="3.797"/>
          <ellipse class="cls-13" cx="3.724" cy="3.797" rx="3.224" ry="3.297"/>
        </g>
        <g id="Ellipse_22" data-name="Ellipse 22" class="cls-6" transform="translate(519.297 92.204)">
          <ellipse class="cls-12" cx="3.724" cy="3.797" rx="3.724" ry="3.797"/>
          <ellipse class="cls-13" cx="3.724" cy="3.797" rx="3.224" ry="3.297"/>
        </g>
        <g id="Ellipse_16" data-name="Ellipse 16" class="cls-6" transform="translate(270.29 49.899)">
          <ellipse class="cls-12" cx="3.724" cy="3.797" rx="3.724" ry="3.797"/>
          <ellipse class="cls-13" cx="3.724" cy="3.797" rx="3.224" ry="3.297"/>
        </g>
        <g id="Ellipse_19" data-name="Ellipse 19" class="cls-6" transform="translate(109.606 46.644)">
          <ellipse class="cls-12" cx="3.724" cy="3.797" rx="3.724" ry="3.797"/>
          <ellipse class="cls-13" cx="3.724" cy="3.797" rx="3.224" ry="3.297"/>
        </g>
        <g id="Ellipse_17" data-name="Ellipse 17" class="cls-5" transform="translate(0 20.61)">
          <ellipse class="cls-12" cx="4.789" cy="4.881" rx="4.789" ry="4.881"/>
          <ellipse class="cls-13" cx="4.789" cy="4.881" rx="3.789" ry="3.881"/>
        </g>
        <g id="Ellipse_18" data-name="Ellipse 18" class="cls-5" transform="translate(180.903 30.373)">
          <ellipse class="cls-12" cx="4.789" cy="4.881" rx="4.789" ry="4.881"/>
          <ellipse class="cls-13" cx="4.789" cy="4.881" rx="3.789" ry="3.881"/>
        </g>
      </g>
    </g>
    <path id="Path_3591" data-name="Path 3591" class="cls-7" d="M4715.677,1708.017l-50.867-60.078-87.466,25.558-105.754-52.237-95.913,26.678-147.961,15.573-164.779-71.337-155.879,55.764-64.542-38.877L3783.577,1633l-109.053,14.937-67.341-38.877-118.531,12.2-114.39-87.725-27.466-24.265v253.313l1368.88-13.922Z" transform="translate(-3289.998 619.119)"/>
    <g id="Ellipse_557" data-name="Ellipse 557" class="cls-8" transform="translate(609.267 2259.153)">
      <ellipse class="cls-12" cx="7.981" cy="8.136" rx="7.981" ry="8.136"/>
      <ellipse class="cls-13" cx="7.981" cy="8.136" rx="6.481" ry="6.636"/>
    </g>
    <g id="Ellipse_568" data-name="Ellipse 568" class="cls-8" transform="translate(1369.058 2259.153)">
      <ellipse class="cls-12" cx="7.981" cy="8.136" rx="7.981" ry="8.136"/>
      <ellipse class="cls-13" cx="7.981" cy="8.136" rx="6.481" ry="6.636"/>
    </g>
    <g id="Ellipse_558" data-name="Ellipse 558" class="cls-8" transform="translate(540.098 2219.018)">
      <ellipse class="cls-12" cx="7.981" cy="8.136" rx="7.981" ry="8.136"/>
      <ellipse class="cls-13" cx="7.981" cy="8.136" rx="6.481" ry="6.636"/>
    </g>
    <g id="Ellipse_566" data-name="Ellipse 566" class="cls-8" transform="translate(1174.321 2230.95)">
      <ellipse class="cls-12" cx="7.981" cy="8.136" rx="7.981" ry="8.136"/>
      <ellipse class="cls-13" cx="7.981" cy="8.136" rx="6.481" ry="6.636"/>
    </g>
    <g id="Ellipse_559" data-name="Ellipse 559" class="cls-8" transform="translate(485.827 2245.052)">
      <ellipse class="cls-12" cx="7.981" cy="8.136" rx="7.981" ry="8.136"/>
      <ellipse class="cls-13" cx="7.981" cy="8.136" rx="6.481" ry="6.636"/>
    </g>
    <g id="Ellipse_565" data-name="Ellipse 565" class="cls-8" transform="translate(1083.87 2256.984)">
      <ellipse class="cls-12" cx="7.981" cy="8.136" rx="7.981" ry="8.136"/>
      <ellipse class="cls-13" cx="7.981" cy="8.136" rx="6.481" ry="6.636"/>
    </g>
    <g id="Ellipse_560" data-name="Ellipse 560" class="cls-9" transform="translate(191.062 2233.119)">
      <ellipse class="cls-12" cx="5.853" cy="5.966" rx="5.853" ry="5.966"/>
      <ellipse class="cls-13" cx="5.853" cy="5.966" rx="4.853" ry="4.966"/>
    </g>
    <g id="Ellipse_567" data-name="Ellipse 567" class="cls-9" transform="translate(1282.863 2285.188)">
      <ellipse class="cls-12" cx="5.853" cy="5.966" rx="5.853" ry="5.966"/>
      <ellipse class="cls-13" cx="5.853" cy="5.966" rx="4.853" ry="4.966"/>
    </g>
    <g id="Ellipse_564" data-name="Ellipse 564" class="cls-9" transform="translate(932.763 2276.51)">
      <ellipse class="cls-12" cx="5.853" cy="5.966" rx="5.853" ry="5.966"/>
      <ellipse class="cls-13" cx="5.853" cy="5.966" rx="4.853" ry="4.966"/>
    </g>
    <g id="Ellipse_561" data-name="Ellipse 561" class="cls-9" transform="translate(378.35 2261.323)">
      <ellipse class="cls-12" cx="5.853" cy="5.966" rx="5.853" ry="5.966"/>
      <ellipse class="cls-13" cx="5.853" cy="5.966" rx="4.853" ry="4.966"/>
    </g>
    <g id="Ellipse_562" data-name="Ellipse 562" class="cls-8" transform="translate(305.989 2215.763)">
      <ellipse class="cls-12" cx="11.173" cy="11.39" rx="11.173" ry="11.39"/>
      <ellipse class="cls-13" cx="11.173" cy="11.39" rx="9.673" ry="9.89"/>
    </g>
    <g id="Ellipse_563" data-name="Ellipse 563" class="cls-10" transform="translate(752.925 2191.899)">
      <ellipse class="cls-12" cx="18.622" cy="18.983" rx="18.622" ry="18.983"/>
      <ellipse class="cls-13" cx="18.622" cy="18.983" rx="16.622" ry="16.983"/>
    </g>
    <g id="Ellipse_556" data-name="Ellipse 556" class="cls-8" transform="translate(76.136 2145.254)">
      <ellipse class="cls-12" cx="7.981" cy="8.136" rx="7.981" ry="8.136"/>
      <ellipse class="cls-13" cx="7.981" cy="8.136" rx="6.481" ry="6.636"/>
    </g>
    <path id="Path_3603" data-name="Path 3603" class="cls-11" d="M67.578,4.052,1434.722,0V55.335L67.578,59.386Z" transform="translate(-9.083 2331.131)"/>
  </g>
</svg>
