<?xml version="1.0" encoding="utf-8"?>
<!-- Generator: Adobe Illustrator 21.1.0, SVG Export Plug-In . SVG Version: 6.00 Build 0)  -->
<svg version="1.1" id="Capa_1" xmlns="http://www.w3.org/2000/svg" xmlns:xlink="http://www.w3.org/1999/xlink" x="0px" y="0px"
	 viewBox="0 0 1379 265.7" style="enable-background:new 0 0 1379 265.7;" xml:space="preserve">
<style type="text/css">
	.st0{opacity:0.8;fill:none;stroke:#97E3E7;stroke-width:2;enable-background:new    ;}
	.st1{opacity:0.796;fill:none;stroke:#97E3E7;stroke-width:2;enable-background:new    ;}
	.st2{opacity:0.8;fill:none;stroke:#95E0E4;stroke-width:2;enable-background:new    ;}
	.st3{opacity:0.8;}
	.st4{fill:#0A5C7C;}
	.st5{fill:none;stroke:#95E0E4;stroke-width:3;}
	.st6{fill:none;stroke:#95E0E4;stroke-width:2;}
	.st7{fill:none;stroke:#95E0E4;}
	.st8{fill:url(#Path_3591_2_);}
	.st9{fill:none;stroke:#95E1E5;stroke-width:3;}
	.st10{fill:none;stroke:#95E0E4;stroke-width:4;}
</style>
<g id="Group_17" transform="translate(0 7.902)">
	<path id="Path_38" class="st0" d="M111.5,15L85,64.8l128-25.9l-21.1,104.3l110.8-12.7L281.1,24.9l81.6,16.6l3.5,126l102.5-14.4
		l-39.3-86.5l93.2,63.9l73.1-49.8L733,116.4L726.8,1.2l159.9,179.9l145.1-16.4L856.3,76.9l157.3-28.7l99.6,94.5L1224.3,65
		l-11.6,124.9l82-23.5l-29.1-49.9l113.1-32.9"/>
	<path id="Path_39" class="st1" d="M213.2,38.3l89.1,91.4l61.2-87.4l104.4,110.4L366.3,168l60.8-103.6l168.5,15.8l-10.7,84.3
		L726.1,0.1l129.5,77.5L732.8,116l296.6,48.5l-15.2-116.2l211,15.8l40.7,53.2l-52.2,72.9"/>
	<path id="Path_40" class="st2" d="M280.9,24.6l-67.6,14.3"/>
	<path id="Path_41" class="st2" d="M215.7,40.4L111.5,15.5L0.1,14"/>
</g>
<g id="Group_18" transform="translate(108.012)">
	<g id="Ellipse_21" transform="translate(615)" class="st3">
		<ellipse class="st4" cx="2.6" cy="7.5" rx="7.4" ry="7.5"/>
		<ellipse class="st5" cx="2.6" cy="7.5" rx="6" ry="6"/>
	</g>
	<g id="Ellipse_25" transform="translate(746 78.492)" class="st3">
		<ellipse class="st4" cx="1.7" cy="6.3" rx="7.4" ry="7.5"/>
		<ellipse class="st5" cx="1.7" cy="6.3" rx="6" ry="6"/>
	</g>
	<g id="Ellipse_28" transform="translate(1159 118.247)" class="st3">
		<ellipse class="st4" cx="-1.1" cy="5.6" rx="7.4" ry="7.5"/>
		<ellipse class="st5" cx="-1.1" cy="5.6" rx="6" ry="6"/>
	</g>
	<g id="Ellipse_26" transform="translate(1117 65.24)" class="st3">
		<ellipse class="st4" cx="-0.8" cy="6.5" rx="7.4" ry="7.5"/>
		<ellipse class="st5" cx="-0.8" cy="6.5" rx="6" ry="6"/>
	</g>
	<g id="Ellipse_20" transform="translate(316 66.259)" class="st3">
		<ellipse class="st4" cx="4.6" cy="6.5" rx="7.4" ry="7.5"/>
		<ellipse class="st5" cx="4.6" cy="6.5" rx="6" ry="6"/>
	</g>
	<g id="Ellipse_27" transform="translate(907 50.969)" class="st3">
		<ellipse class="st4" cx="-1.4" cy="4.7" rx="5.5" ry="5.5"/>
		<ellipse class="st6" cx="-1.4" cy="4.7" rx="4.5" ry="4.5"/>
	</g>
	<g id="Ellipse_15" transform="translate(302 96.841)" class="st3">
		<ellipse class="st4" cx="0.7" cy="2" rx="3.5" ry="3.5"/>
		<ellipse class="st7" cx="0.7" cy="2" rx="3" ry="3.1"/>
	</g>
	<g id="Ellipse_23" transform="translate(537 100.918)" class="st3">
		<ellipse class="st4" cx="-0.9" cy="2" rx="3.5" ry="3.5"/>
		<ellipse class="st7" cx="-0.9" cy="2" rx="3" ry="3.1"/>
	</g>
	<g id="Ellipse_24" transform="translate(702 97.86)" class="st3">
		<ellipse class="st4" cx="-2" cy="2" rx="3.5" ry="3.5"/>
		<ellipse class="st7" cx="-2" cy="2" rx="3" ry="3.1"/>
	</g>
	<g id="Ellipse_22" transform="translate(488 86.647)" class="st3">
		<ellipse class="st4" cx="-0.6" cy="2.2" rx="3.5" ry="3.5"/>
		<ellipse class="st7" cx="-0.6" cy="2.2" rx="3" ry="3.1"/>
	</g>
	<g id="Ellipse_16" transform="translate(254 46.891)" class="st3">
		<ellipse class="st4" cx="1" cy="2.8" rx="3.5" ry="3.5"/>
		<ellipse class="st7" cx="1" cy="2.8" rx="3" ry="3.1"/>
	</g>
	<g id="Ellipse_19" transform="translate(103 43.833)" class="st3">
		<ellipse class="st4" cx="2.1" cy="2.9" rx="3.5" ry="3.5"/>
		<ellipse class="st7" cx="2.1" cy="2.9" rx="3" ry="3.1"/>
	</g>
	<g id="Ellipse_17" transform="translate(0 19.368)" class="st3">
		<ellipse class="st4" cx="3.7" cy="4.2" rx="4.5" ry="4.5"/>
		<ellipse class="st6" cx="3.7" cy="4.2" rx="3.5" ry="3.5"/>
	</g>
	<g id="Ellipse_18" transform="translate(170 28.542)" class="st3">
		<ellipse class="st4" cx="2.6" cy="4.1" rx="4.5" ry="4.5"/>
		<ellipse class="st6" cx="2.6" cy="4.1" rx="3.5" ry="3.5"/>
	</g>
</g>
<linearGradient id="Path_3591_2_" gradientUnits="userSpaceOnUse" x1="-2063.0745" y1="216.8158" x2="-2063.0745" y2="216.0656" gradientTransform="matrix(1387.0791 0 0 -233 2862337 50608.8516)">
	<stop  offset="0" style="stop-color:#0A5C7C"/>
	<stop  offset="1" style="stop-color:#0A5C7C"/>
</linearGradient>
<path id="Path_3591" class="st8" d="M1379,232.6l-87.4-57.7l-81.6,23.6l-98.7-48.3l-89.5,24.7l-138.1,14.4l-153.8-66l-145.5,51.6
	L524.1,139l-55,22.1l-101.8,13.8L304.4,139l-110.6,11.3L87,69.2L0,36.3v229.4h1379L1379,232.6L1379,232.6z"/>
<path id="Path_3591_1_" class="st9" d="M1379,232.6L1379,232.6l-87.4-57.7l-81.6,23.6l-98.7-48.3l-89.5,24.7l-138.1,14.4l-153.8-66
	l-145.5,51.6L524.1,139l-55,22.1l-101.8,13.8L304.4,139l-110.6,11.3L87,69.2L0,36.3"/>
<ellipse class="st4" cx="584.5" cy="175" rx="7.4" ry="7.5"/>
<ellipse class="st5" cx="584.5" cy="175" rx="6" ry="6"/>
<ellipse class="st4" cx="1293.7" cy="175" rx="7.4" ry="7.5"/>
<ellipse class="st5" cx="1293.7" cy="175" rx="6" ry="6"/>
<ellipse class="st4" cx="520" cy="137.9" rx="7.4" ry="7.5"/>
<ellipse class="st5" cx="520" cy="137.9" rx="6" ry="6"/>
<ellipse class="st4" cx="1111.9" cy="148.9" rx="7.4" ry="7.5"/>
<ellipse class="st5" cx="1111.9" cy="148.9" rx="6" ry="6"/>
<ellipse class="st4" cx="469.3" cy="162" rx="7.4" ry="7.5"/>
<ellipse class="st5" cx="469.3" cy="162" rx="6" ry="6"/>
<ellipse class="st4" cx="1027.5" cy="173.1" rx="7.4" ry="7.5"/>
<ellipse class="st5" cx="1027.5" cy="173.1" rx="6" ry="6"/>
<ellipse class="st4" cx="192.2" cy="149" rx="5.5" ry="5.5"/>
<ellipse class="st6" cx="192.2" cy="149" rx="4.5" ry="4.5"/>
<ellipse class="st4" cx="1211.3" cy="197.2" rx="5.5" ry="5.5"/>
<ellipse class="st6" cx="1211.3" cy="197.2" rx="4.5" ry="4.5"/>
<ellipse class="st4" cx="884.5" cy="189.1" rx="5.5" ry="5.5"/>
<ellipse class="st6" cx="884.5" cy="189.1" rx="4.5" ry="4.5"/>
<ellipse class="st4" cx="367" cy="175.1" rx="5.5" ry="5.5"/>
<ellipse class="st6" cx="367" cy="175.1" rx="4.5" ry="4.5"/>
<ellipse class="st4" cx="304.4" cy="138" rx="10.4" ry="10.5"/>
<ellipse class="st5" cx="304.4" cy="138" rx="8.9" ry="9.1"/>
<ellipse class="st4" cx="728.5" cy="122.9" rx="17.4" ry="17.5"/>
<ellipse class="st10" cx="728.5" cy="122.9" rx="15.4" ry="15.6"/>
<ellipse class="st4" cx="86.9" cy="69.7" rx="7.4" ry="7.5"/>
<ellipse class="st5" cx="86.9" cy="69.7" rx="6" ry="6"/>
</svg>
